<svg width="24" height="24" viewBox="0 0 24 24" fill="none" xmlns="http://www.w3.org/2000/svg">
<path d="M14.3637 13.5316L14.362 13.5337L13.3138 14.8445C11.5392 13.668 10.0184 12.1473 8.84197 10.3726L10.1527 9.32439L10.1529 9.32421C10.5606 8.99799 10.8487 8.54591 10.9722 8.03863C11.0957 7.53144 11.0478 6.99763 10.8358 6.52058C10.8358 6.52049 10.8357 6.5204 10.8357 6.52031L9.00751 2.40327L9.00739 2.40301C8.78003 1.8914 8.37837 1.47716 7.874 1.23415C7.3698 0.991218 6.79572 0.935187 6.25407 1.07603C6.2539 1.07608 6.25373 1.07612 6.25356 1.07617L2.77391 1.97757L2.77391 1.97756L2.77106 1.97831C2.20992 2.12544 1.72211 2.47303 1.39984 2.95539L2.23134 3.51092L1.39984 2.95539C1.07757 3.43775 0.943169 4.02146 1.02203 4.59618L1.02203 4.59618L1.02246 4.59929C1.66336 9.16365 3.77284 13.3953 7.03199 16.6544C10.2911 19.9136 14.5228 22.0231 19.0871 22.664L19.0895 22.6643C19.6645 22.7436 20.2486 22.6093 20.731 22.2866C21.2135 21.964 21.5609 21.4755 21.7072 20.9138L21.7074 20.9129L22.6103 17.4342C22.7513 16.8924 22.6953 16.3181 22.4523 15.8137C22.2093 15.3094 21.795 14.9077 21.2834 14.6803L21.2832 14.6802L17.1658 12.8519L17.1653 12.8517C16.6887 12.6404 16.1556 12.5925 15.6489 12.7154C15.1423 12.8384 14.6904 13.1253 14.3637 13.5316Z" stroke="#452E4F" stroke-width="2" stroke-linecap="round" stroke-linejoin="round"/>
</svg>
