<svg width="24" height="24" viewBox="0 0 24 24" fill="none" xmlns="http://www.w3.org/2000/svg">
<path d="M14 19C16.7614 19 19 16.7614 19 14C19 11.2386 16.7614 9 14 9C11.2386 9 9 11.2386 9 14C9 16.7614 11.2386 19 14 19Z" stroke="#452E4F" stroke-width="2" stroke-linecap="round" stroke-linejoin="round"/>
<path d="M3 1H9" stroke="#452E4F" stroke-width="2" stroke-linecap="round" stroke-linejoin="round"/>
<path d="M21 5H3C1.89543 5 1 5.89543 1 7V21C1 22.1046 1.89543 23 3 23H21C22.1046 23 23 22.1046 23 21V7C23 5.89543 22.1046 5 21 5Z" stroke="#452E4F" stroke-width="2" stroke-linecap="round" stroke-linejoin="round"/>
</svg>
