<svg width="14" height="14" viewBox="0 0 14 14" fill="none" xmlns="http://www.w3.org/2000/svg">
<path d="M4.6 8.6C5.04183 8.6 5.4 8.24183 5.4 7.8C5.4 7.35817 5.04183 7 4.6 7C4.15818 7 3.8 7.35817 3.8 7.8C3.8 8.24183 4.15818 8.6 4.6 8.6Z" fill="black"/>
<path d="M9.40001 8.6C9.84183 8.6 10.2 8.24183 10.2 7.8C10.2 7.35817 9.84183 7 9.40001 7C8.95818 7 8.60001 7.35817 8.60001 7.8C8.60001 8.24183 8.95818 8.6 9.40001 8.6Z" fill="black"/>
<path d="M1.028 6.4176C2.7664 4.0976 5.8408 6.7496 9.1816 3.7272C10.8176 6.3184 12.9752 6.452 12.9752 6.452" stroke="#452E4F" stroke-linecap="round" stroke-linejoin="round"/>
<path d="M7 13C10.3137 13 13 10.3137 13 7C13 3.68629 10.3137 1 7 1C3.68629 1 1 3.68629 1 7C1 10.3137 3.68629 13 7 13Z" stroke="#452E4F" stroke-linecap="round" stroke-linejoin="round"/>
</svg>
