<svg width="375" height="162" viewBox="0 0 375 162" fill="none" xmlns="http://www.w3.org/2000/svg">
<path d="M50.0867 108.366C49.6631 108.02 48.9316 107.905 48.7776 107.367C48.7006 107.175 48.7391 106.945 48.7776 106.753C49.0856 105.178 49.8171 103.758 50.3562 102.26C50.8952 100.762 51.2033 99.0729 50.7027 97.5753C50.6257 97.3833 50.5487 97.1913 50.4332 97.0761C50.2407 96.8841 49.9327 96.8457 49.6631 96.8073C48.5465 96.6537 47.4299 96.5001 46.3519 96.5769V98.5353L45.6588 96.6921C45.6203 96.6921 45.5433 96.6921 45.5048 96.7305C43.6951 97.1529 42.232 98.4585 40.8074 99.6873C40.1143 100.302 39.3828 101.07 39.5368 101.991C39.6523 102.606 40.1143 103.105 40.1913 103.719C40.2683 104.449 39.7293 105.14 39.2288 105.678C38.9977 105.908 38.7667 106.177 38.5742 106.407L39.2673 107.329L37.9582 107.098C37.4961 107.598 36.9956 108.135 36.5335 108.634C35.9945 109.249 35.4169 109.863 35.1474 110.631C34.8779 111.399 34.9549 112.359 35.571 112.897C36.726 113.934 38.5742 112.82 40.0373 113.242C41.2309 113.55 42.078 114.394 42.9636 114.97L43.8106 113.396V115.431C44.5422 115.662 45.3123 115.585 46.3519 114.74C47.4685 113.665 52.3584 110.17 50.0867 108.366Z" fill="#89D3E5"/>
<path d="M93.6338 84.7881C92.9407 81.1017 96.329 77.7225 96.098 73.9977C96.0595 73.6521 96.021 73.3065 95.944 72.9609L92.8637 73.9593L95.5975 71.8857C94.8659 70.1577 93.5183 68.6217 92.2092 67.2009C89.437 64.2441 86.3567 61.1337 82.3524 60.4425C78.04 59.7129 73.6506 61.7481 69.7618 59.0217C69.7233 58.9833 69.6848 58.9833 69.6463 58.9449L68.1447 60.8649V57.9465C65.8345 56.5641 63.6783 55.9881 60.4055 56.8329C57.5178 57.6009 54.8611 60.2121 55.0921 63.1689C55.1306 63.8985 55.3616 64.7049 55.0921 65.3961C54.8611 65.9337 54.399 66.3561 53.937 66.7401C51.9348 68.4681 50.2792 70.5801 49.0856 72.9225L51.9733 74.0361H48.5465C48.3155 74.5353 48.123 75.0345 47.9305 75.5337C47.5069 76.7625 47.1989 78.1833 47.6609 79.4121C48.662 82.0233 52.3968 82.3305 54.0525 84.5577C56.1317 87.3609 53.9755 91.2393 53.706 94.7337C53.4749 97.7673 54.861 100.801 56.9402 103.028C59.0579 105.255 61.8301 106.714 64.7179 107.713C67.7211 108.75 70.9169 109.287 74.1127 109.364L74.9982 103.758L75.7683 109.364C79.6186 109.249 83.469 108.404 87.0112 106.906C90.284 105.486 93.4028 103.45 95.3664 100.455C97.3301 97.4985 98.0232 93.5049 96.483 90.3177C95.6745 88.4745 94.0573 86.8617 93.6338 84.7881Z" fill="#89D3E5"/>
<path d="M89.822 100.071C89.822 100.071 89.822 100.071 82.4679 100.148C75.1138 100.225 88.9749 85.2105 88.9749 85.2105L87.5503 84.3657C87.5503 84.3657 80.9663 92.5065 74.9212 97.8825C68.8762 103.258 71.841 84.1737 71.3019 81.8697C70.7244 79.5657 81.0818 67.2777 81.0818 67.2777L79.7726 66.2793C79.7726 66.2793 68.0677 78.8745 68.1062 80.0265C68.1062 81.1785 56.2857 75.6873 56.2857 75.6873L55.5541 77.9145L67.0281 83.3289C67.0281 83.3289 73.3811 98.2665 61.7531 110.055C59.597 112.244 57.7488 115.239 56.2087 118.695C55.6696 118.004 55.1306 117.428 54.7455 117.044C52.5894 114.894 50.0482 113.089 48.046 110.785C47.661 110.362 47.3144 109.902 47.0834 109.364C46.1978 107.29 45.6588 104.641 46.4673 102.682C46.1208 102.913 45.6973 103.028 45.2738 103.066C45.1197 105.14 45.3508 107.252 45.9283 109.249C44.8502 109.326 43.8876 108.711 42.9251 108.25C41.9625 107.828 40.6919 107.636 39.9218 108.366C39.9988 108.673 40.0758 108.98 40.1913 109.249C43.1561 108.289 46.1978 110.286 48.508 112.398C50.9337 114.625 53.2054 117.198 54.168 120.346C54.2835 120.654 54.399 121.575 54.63 122.689C49.2011 137.588 48.0075 157.21 48.0075 157.21L63.1007 157.018C46.4289 95.5785 90.8231 101.53 90.8231 101.53L89.822 100.071Z" fill="#74C2E5"/>
<path d="M233.503 121.928C230.422 121.736 226.88 121.236 225.378 118.587C224.685 117.358 224.608 115.937 224.069 114.632C222.76 111.483 219.064 109.908 215.637 110.062C212.249 110.216 209.053 111.713 205.973 113.172C206.05 110.984 203.855 109.217 201.66 109.14C199.466 109.064 197.425 110.254 195.808 111.675C196.116 109.601 194.807 107.451 192.882 106.529C190.957 105.646 188.608 105.915 186.798 106.99C186.259 107.297 185.72 107.72 185.412 108.296C184.411 110.139 186.221 112.251 186.298 114.363C186.413 117.665 182.486 119.432 179.252 119.969C175.555 120.584 165.429 123.08 160 123.464H257.567C249.558 122.926 241.511 122.427 233.503 121.928Z" fill="#FFFEFF"/>
<path d="M181.494 9.46512C183.342 9.34992 185.459 9.04272 186.345 7.46832C186.768 6.73872 186.807 5.89392 187.115 5.12592C187.885 3.24432 190.118 2.32272 192.159 2.39952C194.2 2.47632 196.086 3.39792 197.934 4.28112C197.896 2.97552 199.205 1.93872 200.514 1.86192C201.823 1.82352 203.055 2.51472 204.018 3.39792C203.825 2.16912 204.634 0.863521 205.751 0.325921C206.906 -0.211679 208.292 -0.0580799 209.37 0.59472C209.678 0.78672 210.024 1.01712 210.178 1.36272C210.756 2.47632 209.678 3.74352 209.639 4.97232C209.562 6.93072 211.911 8.00592 213.836 8.31312C216.031 8.69712 222.076 10.1563 225.349 10.3867H167.093C171.906 10.0795 176.681 9.77232 181.494 9.46512Z" fill="#FFFEFF"/>
<path d="M148.96 43.1663C146.766 42.0911 144.687 40.7087 142.338 40.0175C139.989 39.3263 137.178 39.5183 135.484 41.2847C133.559 40.4783 134.984 37.5215 134.329 35.5631C133.79 33.9887 131.865 33.3359 130.171 33.4511C128.477 33.5663 126.821 34.2575 125.55 35.4095C124.395 36.4463 123.587 37.7903 122.393 38.7503C120.044 40.5935 116.733 40.5551 113.768 40.4015C114.577 38.7887 112.844 36.7919 111.035 36.8687C109.225 36.9455 107.8 38.4431 107.107 40.0943C106.645 41.2079 106.337 42.3599 105.529 43.2431C100.523 48.6575 79 50.5007 79 50.5007C109.61 49.1951 142.222 51.8063 172.832 50.5007C165.363 50.4623 155.66 46.3919 148.96 43.1663Z" fill="#FFFEFF"/>
<path d="M309.284 48.1975C310.516 47.6215 311.671 46.8151 312.98 46.4311C314.289 46.0471 315.868 46.1623 316.83 47.1223C317.908 46.6999 320.989 44.6263 324.146 45.7015C325.724 46.2391 327.303 46.6999 328.959 46.6231C328.497 45.7399 329.459 44.6263 330.46 44.6647C331.461 44.7031 332.27 45.5479 332.655 46.4695C332.925 47.0839 333.271 47.6215 333.541 48.2359C335.004 51.2311 348.364 52.2679 348.364 52.2679C331.269 51.5383 313.095 52.9975 296 52.2679C300.12 52.2679 305.549 50.0023 309.284 48.1975Z" fill="#FFFEFF"/>
<path d="M202.773 65.6891C202.91 65.0059 202.808 64.2544 202.636 63.5712C202.431 62.8198 202.157 62.1366 201.814 61.4534L199.04 62.6831L200.616 59.4381C200.342 59.0282 200.033 58.6525 199.759 58.2426C196.197 53.597 182.771 57.4569 180.887 58.4133C179.86 58.9257 178.832 59.5747 177.976 60.3604L180.339 64.0495C180.339 64.0495 178.387 62.7514 176.777 61.6925C176.572 61.9658 176.366 62.2732 176.195 62.5807C175.168 64.4935 175.099 66.8504 176.024 68.7975C176.469 69.7539 177.12 70.5737 177.531 71.5301C178.045 72.7257 178.147 74.092 177.873 75.3559L178.49 75.9707L177.668 76.1073C177.257 77.2687 176.538 78.2935 175.579 79.0449C174.174 80.0697 172.188 80.7529 171.845 82.4608C171.606 83.5538 172.188 84.6127 172.633 85.6375C173.078 86.6622 173.421 87.8919 172.839 88.8142C172.462 89.3949 171.777 89.7365 171.263 90.2489C170.475 91.0687 170.236 92.2642 170.475 93.3914C171.537 93.1865 172.565 92.9815 172.565 92.9815L171.434 95.236C172.154 96.0558 173.147 96.6023 174.174 96.978C175.681 97.4904 177.325 97.5929 178.901 97.6612C180.476 97.7295 182.189 98.0369 183.662 97.4221C185.408 96.7048 186.71 95.1335 187.669 93.4939C188.114 92.7424 188.559 91.9568 189.073 91.1711C188.491 89.1558 187.737 86.6622 187.737 86.6622L189.69 90.2489C191.368 87.9603 193.971 85.7058 199.862 83.7246C205.102 81.9826 204.383 77.1662 203.493 74.3994L202.02 73.9554L203.253 73.7163C202.945 72.9306 202.705 72.4182 202.705 72.4182C201.986 71.2569 201.506 69.8222 201.814 68.49C201.986 67.5336 202.602 66.6797 202.773 65.6891Z" fill="#89D3E5"/>
<path d="M197.051 74.7068C197.051 74.7068 189.927 84.4078 187.598 82.939C185.303 81.436 187.427 70.7786 189.242 67.2945C190.201 65.4499 194.482 60.9069 194.482 60.9069L193.215 59.6772C193.215 59.6772 189.482 65.3475 187.324 65.9282C185.988 66.2697 183.043 64.5277 183.043 64.5277L182.632 65.7232C182.632 65.7232 185.92 66.8846 186.433 67.841C188.386 71.291 183.488 83.4513 182.358 83.4513C179.789 83.4513 177.289 78.84 177.289 78.84L176.398 79.5915C176.398 79.5915 181.81 88.1652 180.919 89.9756C179.96 91.8884 169.069 122.46 169 159.214L173.898 158.292C173.898 158.292 167.733 94.6211 198.387 76.7563L197.051 74.7068Z" fill="#74C2E5"/>
<path d="M219.218 71C214.559 74.1872 216.33 76.0304 216.33 76.0304C216.33 76.0304 218.872 76.6064 219.218 71Z" fill="#89D3E5"/>
<path d="M76.3612 74C71.4713 77.3024 73.3579 79.2608 73.3579 79.2608C73.3579 79.2608 75.9761 79.8752 76.3612 74Z" fill="#82D3E5"/>
<path d="M55.4724 120.441C50.5055 123.821 52.3922 125.817 52.3922 125.817C52.3922 125.817 55.0874 126.432 55.4724 120.441Z" fill="#82D3E5"/>
<path d="M79.4319 119C74.465 122.379 76.3516 124.376 76.3516 124.376C76.3516 124.376 79.0469 125.029 79.4319 119Z" fill="#FF8633"/>
<path d="M269.935 91.3726C266.239 93.8686 267.664 95.3662 267.664 95.3662C267.664 95.3662 269.666 95.827 269.935 91.3726Z" fill="#89D3E5"/>
<path d="M209.485 50.4382C204.826 53.587 206.598 55.4686 206.598 55.4686C206.598 55.4686 209.139 56.0446 209.485 50.4382Z" fill="#89D3E5"/>
<path d="M324.648 132C320.336 134.918 321.992 136.685 321.992 136.685C321.992 136.685 324.34 137.222 324.648 132Z" fill="#89D3E5"/>
<path d="M286.684 135.955C291.074 138.912 289.38 140.678 289.38 140.678C289.38 140.678 287.031 141.254 286.684 135.955Z" fill="#FF8633"/>
<path d="M229.391 84.9214C233.973 88.0318 232.202 89.875 232.202 89.875C232.202 89.875 229.777 90.4126 229.391 84.9214Z" fill="#FF8633"/>
<path d="M147.842 65.6062C152.693 68.9086 150.845 70.8286 150.845 70.8286C150.845 70.8286 148.188 71.443 147.842 65.6062Z" fill="#FF8633"/>
<path d="M114.267 66.1438C109.415 69.4462 111.264 71.3662 111.264 71.3662C111.264 71.3662 113.92 71.9422 114.267 66.1438Z" fill="#89D3E5"/>
<path d="M169 38C172.812 40.6112 171.349 42.1472 171.349 42.1472C171.349 42.1472 169.308 42.608 169 38Z" fill="#FF8633"/>
<path d="M57.7056 53.5102C61.5559 56.1214 60.0928 57.6574 60.0928 57.6574C60.0928 57.6574 58.0137 58.1566 57.7056 53.5102Z" fill="#FF8633"/>
<path d="M324.764 66.2206C329.346 69.331 327.575 71.1742 327.575 71.1742C327.575 71.1742 325.111 71.7118 324.764 66.2206Z" fill="#FF8633"/>
<path d="M301.578 42.2684C301.578 42.2684 282.942 40.0796 283.52 34.7036C284.098 29.3277 280.478 17.7309 270.275 21.8781C262.998 24.8349 264.846 32.5149 264.846 32.5149C264.846 32.5149 262.728 27.3693 259.956 29.4045C257.184 31.4013 256.26 34.7036 256.26 34.7036C256.26 34.7036 240.781 27.5613 233.119 32.9756C222.454 40.5404 194 42.422 194 42.422L301.578 42.2684Z" fill="#FFFEFF"/>
<path d="M152.27 83.8078C152.231 83.155 152.886 82.7326 153.425 82.3486C154.888 81.2734 157.314 74.3998 154.811 69.3694L153.04 70.0222L154.426 68.7166C153.425 67.1038 151.846 65.7214 149.459 64.8766C141.758 62.1118 136.021 68.1406 134.289 69.2158C133.711 69.0622 129.976 67.5646 125.933 66.835C125.548 66.7582 124.624 69.0238 124.624 69.0238L124.124 66.5662C121.467 66.259 118.849 66.451 117.116 67.7566C110.571 72.6334 113.42 81.9646 116.077 85.2286C116.77 86.1118 117.694 86.8798 118.002 87.955C118.579 90.0286 116.693 91.795 115.461 93.5614C111.071 99.8206 113.304 105.005 116.346 107.885L117.424 106.387L116.962 108.384C118.541 109.689 120.235 110.381 121.313 110.265C122.43 110.189 123.585 109.958 124.663 110.304C125.741 110.611 126.704 111.725 126.396 112.8C126.241 113.299 125.856 113.721 125.895 114.259C126.087 116.601 135.79 114.681 137.792 114.797C142.22 115.104 146.687 113.798 149.805 110.534C151.192 109.075 152.231 107.347 153.078 105.504L151.692 102.624L154.002 103.392C154.811 101.433 155.542 99.3982 155.85 97.2862C156.544 92.8702 152.27 84.1534 152.27 83.8078Z" fill="#FFA933"/>
<path d="M143.991 82.9246C145.416 83.6542 147.187 83.9998 148.573 83.155C149.536 82.579 150.114 81.5038 150.383 80.3902C150.691 79.315 150.768 78.163 151.038 77.0878C151.23 76.2814 151.538 75.5134 151.5 74.707C151.384 73.1326 149.882 71.9422 148.304 71.7502C146.225 71.5198 144.8 72.8254 142.913 73.4014C141.912 73.7086 140.411 73.555 139.718 74.4766C137.561 77.3566 141.681 81.7342 143.991 82.9246Z" fill="#FF8133"/>
<path d="M124.663 78.0094C125.279 77.395 125.972 76.7038 126.01 75.8206C126.049 75.0526 125.587 74.323 124.971 73.9006C124.355 73.4782 123.585 73.2862 122.853 73.1326C121.698 72.9406 120.505 72.8638 119.388 73.171C118.271 73.5166 117.232 74.323 116.885 75.4366C116.731 75.9358 116.731 76.4734 116.731 76.9726C116.731 78.8542 116.847 84.3454 119.619 84.499C121.121 84.5758 121.39 83.0782 121.775 82.003C122.314 80.4286 123.469 79.1614 124.663 78.0094Z" fill="#FF8133"/>
<path d="M130.207 109.843C128.436 108.883 126.627 107.731 124.624 107.654C123.816 107.616 122.93 107.769 122.16 107.501C121.121 107.155 120.466 106.195 119.85 105.312C118.849 103.776 117.886 101.933 118.502 100.205C119.003 98.8606 120.389 98.0542 121.506 97.171C123.662 95.4046 125.125 92.755 125.433 89.9518C125.702 87.4558 125.163 84.691 126.473 82.5406C127.397 81.043 129.014 80.1214 130.669 79.507C131.401 79.2382 132.132 78.9694 132.903 79.0078C134.751 79.0462 136.175 80.5822 137.138 82.1566C138.062 83.731 138.755 85.4974 140.103 86.7646C141.258 87.8398 142.798 88.3774 144.3 88.7998C145.493 89.1454 146.764 89.4142 147.726 90.2206C149.151 91.3726 149.613 93.4078 149.42 95.251C149.228 97.0942 148.573 98.8222 148.073 100.627C147.649 102.24 147.418 103.891 147.341 105.581C147.303 106.502 147.341 107.501 146.841 108.307C146.494 108.921 145.878 109.344 145.262 109.728C143.106 111.11 139.679 113.491 136.945 112.761C136.06 112.531 135.367 111.878 134.52 111.533C133.134 110.841 131.632 110.611 130.207 109.843Z" fill="#FF8133"/>
<path d="M146.263 84.3454C146.687 82.387 149.112 76.9342 149.112 76.9342L148.496 75.9358L144.723 84.115L142.066 80.5822L141.604 80.9662L144.723 86.803C144.723 86.803 142.836 113.145 140.488 112.723C138.832 112.416 136.291 89.7598 136.291 86.995C136.291 83.8846 141.643 76.243 141.643 76.243L140.603 75.9358L134.366 86.2654L129.399 84.1918L126.742 77.203L125.856 77.6638L128.167 83.8846L119.85 80.3902L120.774 82.387C120.774 82.387 132.826 86.1886 133.865 88.5694C135.213 91.603 138.177 113.721 136.753 113.798C136.329 113.837 129.206 104.045 129.206 104.045L131.324 99.2446L130.361 98.8606L128.321 103.046C128.321 103.046 121.39 102.47 120.967 102.701C120.505 102.931 120.967 103.622 120.967 103.622C120.967 103.622 125.972 104.006 127.397 104.813C132.132 107.501 136.56 117.485 138.524 122.669C140.141 126.931 141.874 156.806 141.874 156.806H146.764C146.764 156.806 144.107 116.025 144.877 108.269C145.339 103.161 145.031 90.2206 146.263 84.3454Z" fill="#885036"/>
<path d="M117.886 96.3646C115.307 98.1694 116.308 98.899 116.308 98.899C116.308 98.899 117.347 99.5134 117.886 96.3646Z" fill="#A64129"/>
<path d="M127.897 93.139C129.091 96.0574 130.015 95.251 130.015 95.251C130.015 95.251 130.823 94.3294 127.897 93.139Z" fill="#A64129"/>
<path d="M124.085 97.6702C125.279 100.589 126.203 99.7822 126.203 99.7822C126.203 99.7822 127.012 98.8606 124.085 97.6702Z" fill="#A64129"/>
<path d="M120.042 76.2046C120.736 79.2766 121.775 78.6622 121.775 78.6622C121.775 78.6622 122.738 77.8558 120.042 76.2046Z" fill="#A64129"/>
<path d="M130.708 73.9774C129.245 76.7806 130.477 76.9726 130.477 76.9726C130.477 76.9726 131.709 76.9726 130.708 73.9774Z" fill="#A64129"/>
<path d="M134.789 77.3566C134.943 80.5054 136.098 80.0446 136.098 80.0446C136.098 80.0446 137.176 79.4302 134.789 77.3566Z" fill="#A64129"/>
<path d="M145.57 71.1358C144.685 74.1694 145.917 74.0926 145.917 74.0926C145.917 74.0926 147.149 73.8622 145.57 71.1358Z" fill="#A64129"/>
<path d="M149.998 84.9598C147.187 86.4574 148.111 87.2638 148.111 87.2638C148.111 87.2638 149.112 87.9934 149.998 84.9598Z" fill="#A64129"/>
<path d="M148.997 98.1694C146.186 99.667 147.11 100.473 147.11 100.473C147.11 100.473 148.111 101.203 148.997 98.1694Z" fill="#A64129"/>
<path d="M140.218 87.3406C137.407 88.8382 138.332 89.6446 138.332 89.6446C138.332 89.6446 139.333 90.3742 140.218 87.3406Z" fill="#A64129"/>
<path d="M141.951 94.5598C139.564 96.6334 140.642 97.2478 140.642 97.2478C140.642 97.2478 141.797 97.7086 141.951 94.5598Z" fill="#A64129"/>
<path d="M121.159 87.3022C121.852 90.3742 122.892 89.7598 122.892 89.7598C122.892 89.7598 123.854 88.9918 121.159 87.3022Z" fill="#A64129"/>
<path d="M151.769 91.4494C152.462 94.5214 153.502 93.907 153.502 93.907C153.502 93.907 154.464 93.139 151.769 91.4494Z" fill="#A64129"/>
<path d="M86.8367 148.819H60V150.278H86.8367V148.819Z" fill="#885036"/>
<path d="M63.4653 150.278H62.3872V156.806H63.4653V150.278Z" fill="#885036"/>
<path d="M64.7359 156L62.9262 155.693L61.1551 156V156.806H64.7359V156Z" fill="#452E4F"/>
<path d="M64.2353 151.2H61.6171L61.3091 150.278H64.5819L64.2353 151.2Z" fill="#452E4F"/>
<path d="M84.3726 150.278H83.2944V156.806H84.3726V150.278Z" fill="#885036"/>
<path d="M85.6431 156L83.8335 155.693L82.0623 156V156.806H85.6431V156Z" fill="#452E4F"/>
<path d="M85.1811 151.2H82.5244L82.2163 150.278H85.4891L85.1811 151.2Z" fill="#452E4F"/>
<path d="M62.4642 140.371H61.3861L62.3872 148.819H63.4653L62.4642 140.371Z" fill="#452E4F"/>
<path d="M84.2955 140.371H85.3736L84.411 148.819H83.3329L84.2955 140.371Z" fill="#452E4F"/>
<path d="M85.9512 141.369H60.8471V144.134H85.9512V141.369Z" fill="#885036"/>
<path d="M85.9512 145.094H60.8471V147.859H85.9512V145.094Z" fill="#885036"/>
<path d="M62.7722 142.752C62.7722 142.944 62.6182 143.097 62.4257 143.097C62.2332 143.097 62.0792 142.944 62.0792 142.752C62.0792 142.56 62.2332 142.406 62.4257 142.406C62.6182 142.406 62.7722 142.56 62.7722 142.752Z" fill="#B58975"/>
<path d="M84.7191 142.752C84.7191 142.944 84.5651 143.097 84.3725 143.097C84.18 143.097 84.026 142.944 84.026 142.752C84.026 142.56 84.18 142.406 84.3725 142.406C84.5651 142.406 84.7191 142.56 84.7191 142.752Z" fill="#B58975"/>
<path d="M62.4257 146.822C62.6171 146.822 62.7722 146.667 62.7722 146.477C62.7722 146.286 62.6171 146.131 62.4257 146.131C62.2343 146.131 62.0792 146.286 62.0792 146.477C62.0792 146.667 62.2343 146.822 62.4257 146.822Z" fill="#B58975"/>
<path d="M84.3725 146.822C84.5639 146.822 84.7191 146.667 84.7191 146.477C84.7191 146.286 84.5639 146.131 84.3725 146.131C84.1812 146.131 84.026 146.286 84.026 146.477C84.026 146.667 84.1812 146.822 84.3725 146.822Z" fill="#B58975"/>
<path d="M316.031 125.433H260.856V150.009H316.031V125.433Z" fill="#FFA933"/>
<path d="M316.031 148.819H260.856V150.009H316.031V148.819Z" fill="#FF8633"/>
<path d="M316.031 144.672H260.856V145.862H316.031V144.672Z" fill="#FF8633"/>
<path d="M316.031 140.525H260.856V141.715H316.031V140.525Z" fill="#FF8633"/>
<path d="M316.031 136.377H260.856V137.568H316.031V136.377Z" fill="#FF8633"/>
<path d="M304.21 87.9934H295.162V104.736H304.21V87.9934Z" fill="#885036"/>
<path d="M304.21 96.8254H295.162V104.736H304.21V96.8254Z" fill="#6B3F36"/>
<path d="M305.789 84.2686H293.969V87.9934H305.789V84.2686Z" fill="#9A7152"/>
<path d="M316.031 132.23H260.856V133.421H316.031V132.23Z" fill="#FF8633"/>
<path d="M316.031 128.083H260.856V129.273H316.031V128.083Z" fill="#FF8633"/>
<path d="M316.031 125.433H260.856V126.624H316.031V125.433Z" fill="#FF8633"/>
<path d="M308.407 98.899H267.902L257.93 125.433H318.341L308.407 98.899Z" fill="#885036"/>
<path d="M283.765 129.888H270.828V150.009H283.765V129.888Z" fill="#885036"/>
<path d="M282.764 130.963H271.752V150.009H282.764V130.963Z" fill="#E0F4E7"/>
<path d="M282.764 148.819H271.752V150.009H282.764V148.819Z" fill="#C2E7E7"/>
<path d="M317.07 121.977L316.493 120.48H259.778L259.2 121.977H317.07Z" fill="#703636"/>
<path d="M262.088 114.336L261.549 115.833H314.76L314.183 114.336H262.088Z" fill="#703636"/>
<path d="M264.398 108.153L263.859 109.651H312.45L311.873 108.153H264.398Z" fill="#703636"/>
<path d="M266.708 101.971L266.169 103.469H310.14L309.562 101.971H266.708Z" fill="#703636"/>
<path d="M286.268 110.611H270.828L278.567 102.893L286.268 110.611Z" fill="#FFA933"/>
<path d="M284.497 110.611H272.599L278.567 104.697L284.497 110.611Z" fill="#E0F4E7"/>
<path d="M283.534 110.611H273.562V122.016H283.534V110.611Z" fill="#FFA933"/>
<path d="M283.534 110.611H273.562V111.533H283.534V110.611Z" fill="#E09233"/>
<path d="M282.649 110.611H274.447V122.016H282.649V110.611Z" fill="#E0F4E7"/>
<path d="M282.649 110.611H274.447V111.533H282.649V110.611Z" fill="#C2E7E7"/>
<path d="M282.649 115.334H279.106V110.611H277.99V115.334H274.447V116.294H277.99V121.977H279.106V116.294H282.649V115.334Z" fill="#ACB7BE"/>
<path d="M279.068 110.611H277.99V111.533H279.068V110.611Z" fill="#929FBE"/>
<path d="M307.406 110.611H291.928L299.667 102.893L307.406 110.611Z" fill="#FFA933"/>
<path d="M305.597 110.611H293.738L299.667 104.697L305.597 110.611Z" fill="#E0F4E7"/>
<path d="M304.672 110.611H294.7V122.016H304.672V110.611Z" fill="#FFA933"/>
<path d="M304.672 110.611H294.7V111.533H304.672V110.611Z" fill="#E09233"/>
<path d="M303.787 110.611H295.586V122.016H303.787V110.611Z" fill="#E0F4E7"/>
<path d="M303.787 110.611H295.586V111.533H303.787V110.611Z" fill="#C2E7E7"/>
<path d="M303.787 115.334H300.206V110.611H299.128V115.334H295.586V116.294H299.128V121.977H300.206V116.294H303.787V115.334Z" fill="#ACB7BE"/>
<path d="M300.206 110.611H299.128V111.533H300.206V110.611Z" fill="#929FBE"/>
<path d="M323.269 149.971H253.579V152.697H323.269V149.971Z" fill="#4A3636"/>
<path d="M324.887 152.697H252V156.998H324.887V152.697Z" fill="#703636"/>
<path d="M296.125 130.963H287.847V146.63H296.125V130.963Z" fill="#885036"/>
<path d="M296.125 138.336H292.582V130.963H291.35V138.336H287.847V139.219H291.35V146.592H292.582V139.219H296.125V138.336Z" fill="#6B4B36"/>
<path d="M309.793 130.963H301.515V146.63H309.793V130.963Z" fill="#885036"/>
<path d="M309.793 138.336H306.29V130.963H305.057V138.336H301.515V139.219H305.057V146.592H306.29V139.219H309.793V138.336Z" fill="#6B4B36"/>
<path d="M282.803 139.872H277.72V130.963H276.835V139.872H271.752V140.717H276.835V149.971H277.72V140.717H282.803V139.872Z" fill="#ACB7BE"/>
<path d="M277.682 148.819H276.835V150.009H277.682V148.819Z" fill="#929FBE"/>
<path d="M273.215 143.097C273.577 143.097 273.87 142.805 273.87 142.445C273.87 142.084 273.577 141.792 273.215 141.792C272.854 141.792 272.561 142.084 272.561 142.445C272.561 142.805 272.854 143.097 273.215 143.097Z" fill="#ACB7BE"/>
<path d="M281.185 110.304C280.954 109.075 279.838 108.153 278.567 108.153C277.258 108.153 276.18 109.075 275.949 110.304H281.185Z" fill="#ACB7BE"/>
<path d="M302.285 110.304C302.054 109.075 300.938 108.153 299.667 108.153C298.358 108.153 297.28 109.075 297.049 110.304H302.285Z" fill="#ACB7BE"/>
<path d="M362.391 88.3006L361.121 88.723L361.698 87.4174C361.005 86.6494 360.158 86.035 359.234 85.6126C357.155 84.6142 354.806 84.3838 352.496 84.3454C351.033 84.307 349.493 84.3838 348.03 84.6142L347.721 86.7646L346.489 84.9214C344.834 85.3438 343.294 86.0734 341.985 87.187C340.175 88.7614 339.097 90.9502 338.019 93.0622C336.017 92.7934 333.937 91.2958 332.128 92.2558C330.819 92.9854 330.472 94.675 330.01 96.0958C329.355 98.131 328.162 100.013 326.583 101.472C325.428 102.509 324.081 103.392 323.387 104.813C322.309 107.078 323.618 109.805 325.621 111.417L326.737 110.573V112.185C327.854 112.838 329.047 113.376 330.049 114.144C331.204 115.065 332.128 116.525 331.82 117.945C331.358 120.096 328.662 120.941 327.623 122.899C326.429 125.126 328.008 128.045 330.28 129.158C334.553 131.309 341.137 129.849 345.796 129.619C346.682 129.581 347.683 129.389 348.684 129.158V125.241L350.07 128.736C353.227 127.661 356.308 125.702 357.732 123.168C358.887 121.094 358.849 118.521 358.156 116.256C358.04 115.872 357.886 115.488 357.732 115.065L355.461 114.605L357.155 113.76C356.539 112.416 355.807 111.149 355.076 109.843C354.806 109.344 354.537 108.845 354.498 108.307C354.344 106.848 355.576 105.657 356.616 104.621C359.542 101.741 361.698 98.131 362.815 94.1758C363.161 93.0622 363.392 91.8718 363.238 90.7198C363.2 89.875 362.892 89.0302 362.391 88.3006Z" fill="#FFA933"/>
<path d="M338.211 109.536C338.519 109.113 338.866 108.653 338.981 108.153C339.135 107.539 339.058 106.925 339.058 106.272C339.058 104.774 339.482 103.085 338.673 101.817C338.096 100.896 336.941 100.473 335.862 100.435C335.439 100.435 334.977 100.473 334.592 100.627C333.591 101.011 332.975 102.086 332.628 103.123C332.282 104.16 332.166 105.273 331.666 106.233C330.934 107.731 329.355 108.998 329.509 110.649C329.663 112.339 331.704 114.297 333.475 113.952C335.554 113.568 337.095 111.033 338.211 109.536Z" fill="#FF8133"/>
<path d="M350.879 89.3758C350.378 89.683 350.032 90.2206 349.685 90.7198C349.108 91.603 348.492 92.4862 347.914 93.4078C346.874 94.9438 345.796 96.8254 346.412 98.5918C346.759 99.6286 347.683 100.397 348.569 101.011C349.916 101.933 351.495 102.701 353.073 102.432C354.498 102.201 355.653 101.126 356.346 99.8974C357.039 98.6686 357.309 97.2094 357.501 95.7886C357.617 94.9438 357.694 94.0606 357.501 93.2158C357.309 92.179 356.731 91.219 356.154 90.3358C354.96 88.5694 352.688 88.2238 350.879 89.3758Z" fill="#FF8133"/>
<path d="M337.018 126.009C336.325 125.894 335.631 125.702 335.169 125.165C334.63 124.473 334.746 123.513 334.977 122.669C335.901 119.597 338.211 117.216 339.674 114.336C340.521 112.646 341.06 110.803 341.214 108.96C341.368 107.27 341.445 105.197 342.986 104.467C344.025 103.968 345.219 104.352 346.297 104.774C347.413 105.197 348.569 105.696 349.3 106.617C350.34 107.923 350.301 109.689 350.532 111.341C350.879 113.875 351.88 116.294 352.188 118.829C352.534 121.862 351.803 124.896 348.53 125.357C344.68 125.894 340.945 126.739 337.018 126.009Z" fill="#FF8133"/>
<path d="M347.722 124.397C345.142 124.281 345.45 125.241 345.45 125.241C345.45 125.241 345.873 126.163 347.722 124.397Z" fill="#A64129"/>
<path d="M353.998 119.981C351.418 119.942 351.726 120.864 351.726 120.864C351.726 120.864 352.188 121.785 353.998 119.981Z" fill="#A64129"/>
<path d="M339.905 113.721C340.983 116.064 341.715 115.373 341.715 115.373C341.715 115.373 342.331 114.605 339.905 113.721Z" fill="#A64129"/>
<path d="M339.828 119.75C337.903 121.44 338.789 121.939 338.789 121.939C338.789 121.939 339.713 122.285 339.828 119.75Z" fill="#A64129"/>
<path d="M352.881 110.995C350.301 110.957 350.609 111.878 350.609 111.878C350.609 111.878 351.033 112.8 352.881 110.995Z" fill="#A64129"/>
<path d="M355.499 102.893C352.919 102.854 353.228 103.776 353.228 103.776C353.228 103.776 353.651 104.697 355.499 102.893Z" fill="#A64129"/>
<path d="M334.861 102.701C335.285 105.235 336.171 104.736 336.171 104.736C336.171 104.736 336.979 104.121 334.861 102.701Z" fill="#A64129"/>
<path d="M340.29 96.211C340.714 98.7454 341.599 98.2462 341.599 98.2462C341.599 98.2462 342.408 97.6702 340.29 96.211Z" fill="#A64129"/>
<path d="M326.737 106.041C328.547 107.846 329.009 106.963 329.009 106.963C329.009 106.963 329.317 106.041 326.737 106.041Z" fill="#A64129"/>
<path d="M332.205 126.24C334.553 127.315 334.63 126.317 334.63 126.317C334.63 126.317 334.63 125.318 332.205 126.24Z" fill="#A64129"/>
<path d="M332.436 119.942C334.784 121.017 334.861 120.019 334.861 120.019C334.861 120.019 334.823 119.021 332.436 119.942Z" fill="#A64129"/>
<path d="M334.399 95.9038C334.977 98.3998 335.824 97.8622 335.824 97.8622C335.824 97.8622 336.594 97.2094 334.399 95.9038Z" fill="#A64129"/>
<path d="M360.505 89.683C358.156 90.7582 358.849 91.4878 358.849 91.4878C358.849 91.4878 359.658 92.1022 360.505 89.683Z" fill="#A64129"/>
<path d="M345.334 88.5694C345.527 91.1422 346.451 90.7582 346.451 90.7582C346.451 90.7582 347.259 90.2206 345.334 88.5694Z" fill="#A64129"/>
<path d="M351.687 90.6046C350.84 93.0238 351.841 93.0238 351.841 93.0238C351.841 93.0238 352.804 92.9086 351.687 90.6046Z" fill="#A64129"/>
<path d="M348.607 96.9022C347.76 99.3214 348.761 99.3214 348.761 99.3214C348.761 99.3214 349.724 99.2062 348.607 96.9022Z" fill="#A64129"/>
<path d="M348.607 96.9022C347.76 99.3214 348.761 99.3214 348.761 99.3214C348.761 99.3214 349.724 99.2062 348.607 96.9022Z" fill="#A64129"/>
<path d="M354.152 95.9422C354.152 95.9422 350.07 106.579 347.221 105.619C345.796 105.12 345.142 94.867 345.142 94.867H344.372C344.372 94.867 345.796 108.806 344.603 109.305C342.524 110.15 341.407 103.2 341.407 103.2L340.752 103.737L343.371 113.76C343.371 113.76 341.138 128.851 338.904 128.774C337.249 128.697 337.788 114.489 337.788 114.489L339.097 103.008H337.788C337.788 103.008 337.518 110.918 336.286 111.149C335.285 111.341 331.704 104.006 331.704 104.006L331.281 104.659C331.281 104.659 334.746 111.84 335.401 114.528C337.672 124.128 336.556 144.902 333.591 156.806H338.057C340.752 145.517 338.481 127.123 350.224 106.118C351.649 103.545 355.076 95.9422 355.076 95.9422H354.152Z" fill="#885036"/>
<path d="M102.215 82.5406C102.292 82.3486 102.562 82.3102 102.562 82.1182C102.562 82.0798 102.562 82.003 102.523 81.9646C102.523 81.9262 102.485 81.9262 102.485 81.8878C102.485 81.811 102.485 81.7342 102.523 81.6958C102.6 81.5422 102.639 81.427 102.716 81.2734C102.754 81.1966 102.793 81.0814 102.754 81.0046C102.716 80.9662 102.677 80.9278 102.639 80.8894C102.485 80.6974 102.677 80.4286 102.754 80.1982C102.985 79.5838 101.83 78.8926 101.445 79.4302C101.291 79.6222 101.137 79.891 100.906 79.8526C100.868 79.8526 100.791 79.8142 100.752 79.8142C100.675 79.8142 100.598 79.891 100.56 79.9678C100.483 80.083 100.367 80.1982 100.29 80.3518C100.252 80.4286 100.213 80.467 100.136 80.5054C100.098 80.5054 100.098 80.5054 100.059 80.5054C100.021 80.5054 99.9437 80.5054 99.9052 80.5438C99.7512 80.659 99.8282 80.9278 99.7126 81.0814C99.6356 81.1582 99.4816 81.1966 99.4431 81.0814C99.3276 81.5422 99.4046 82.0414 99.5971 82.4638C99.7126 82.7326 99.9437 82.963 100.175 83.1166C100.444 83.2702 100.714 83.347 101.022 83.347C101.484 83.3086 101.946 83.155 102.331 82.8478C102.215 82.771 102.138 82.6174 102.215 82.5406Z" fill="#D37533"/>
<path d="M101.715 82.8478L101.676 82.771C101.676 82.771 100.983 83.0014 100.406 82.8478L100.752 82.2718C101.599 82.4638 102.215 82.0798 102.254 82.0798L102.215 82.003C102.215 82.003 101.638 82.3486 100.791 82.195L101.099 81.6574C101.792 81.6958 102.292 81.3886 102.331 81.3886L102.292 81.3118C102.292 81.3118 101.792 81.619 101.137 81.5806L101.484 81.0046C101.907 81.043 102.331 80.8126 102.369 80.8126L102.331 80.7358C102.331 80.7358 101.946 80.9662 101.522 80.9278L101.907 80.3134C102.292 80.3518 102.562 80.1598 102.562 80.1598L102.523 80.083C102.523 80.083 102.292 80.275 101.946 80.2366L102.446 79.3918C102.408 79.3534 102.369 79.3534 102.331 79.315L101.83 80.1598C101.638 79.891 101.715 79.5838 101.715 79.5838H101.638C101.638 79.5838 101.561 79.9294 101.792 80.2366L101.407 80.851C101.176 80.5054 101.214 80.0446 101.214 80.0446H101.137C101.137 80.083 101.137 80.5438 101.368 80.9278L101.022 81.5038C100.675 80.9278 100.714 80.3902 100.714 80.3902H100.637C100.637 80.4286 100.598 81.0046 100.983 81.5806L100.675 82.1182C100.136 81.4654 100.175 80.7742 100.175 80.7742H100.098C100.098 80.8126 100.059 81.5038 100.637 82.195L100.29 82.771C99.8667 82.3486 99.7511 81.619 99.7511 81.619H99.6741C99.6741 81.6574 99.8281 82.387 100.252 82.8478L100.136 83.0782L100.175 83.1166L100.213 83.155L100.329 82.9246C100.983 83.0782 101.676 82.8478 101.715 82.8478Z" fill="#955A68"/>
<path d="M134.866 95.6734C134.943 95.4814 135.213 95.443 135.213 95.251C135.213 95.2126 135.213 95.1358 135.174 95.0974C135.174 95.059 135.136 95.059 135.136 95.0206C135.136 94.9438 135.136 94.867 135.174 94.8286C135.251 94.675 135.29 94.5598 135.367 94.4062C135.405 94.3294 135.444 94.2142 135.405 94.1374C135.367 94.099 135.328 94.0606 135.29 94.0222C135.136 93.8302 135.328 93.5614 135.405 93.331C135.636 92.7166 134.481 92.0254 134.096 92.563C133.942 92.755 133.788 93.0238 133.557 92.9854C133.518 92.9854 133.441 92.947 133.403 92.947C133.326 92.947 133.249 93.0238 133.21 93.1006C133.133 93.2158 133.018 93.331 132.941 93.4846C132.902 93.5614 132.864 93.5998 132.787 93.6382C132.748 93.6382 132.748 93.6382 132.71 93.6382C132.671 93.6382 132.594 93.6382 132.556 93.6766C132.402 93.7918 132.479 94.0606 132.363 94.2142C132.286 94.291 132.132 94.3294 132.094 94.2142C131.978 94.675 132.055 95.1742 132.248 95.5966C132.363 95.8654 132.594 96.0958 132.825 96.2494C133.095 96.403 133.364 96.4798 133.672 96.4798C134.135 96.4414 134.597 96.2878 134.982 95.9806C134.905 95.9422 134.828 95.7886 134.866 95.6734Z" fill="#D37533"/>
<path d="M134.404 95.9806L134.366 95.9037C134.366 95.9037 133.672 96.1342 133.095 95.9806L133.441 95.4046C134.289 95.5966 134.905 95.2126 134.943 95.2126L134.905 95.1357C134.905 95.1357 134.327 95.4813 133.48 95.3277L133.788 94.7902C134.481 94.8286 134.982 94.5213 135.02 94.5213L134.982 94.4446C134.982 94.4446 134.481 94.7517 133.826 94.7133L134.173 94.1373C134.597 94.1757 135.02 93.9453 135.059 93.9453L135.02 93.8686C135.02 93.8686 134.635 94.099 134.212 94.0606L134.597 93.4462C134.982 93.4846 135.251 93.2926 135.251 93.2926L135.213 93.2158C135.213 93.2158 134.982 93.4078 134.635 93.3694L135.136 92.5246C135.097 92.4862 135.059 92.4862 135.02 92.4478L134.52 93.2926C134.327 93.0238 134.404 92.7166 134.404 92.7166H134.327C134.327 92.7166 134.25 93.0622 134.481 93.3694L134.096 93.9838C133.865 93.6382 133.904 93.1774 133.904 93.1774H133.826C133.826 93.2158 133.826 93.6766 134.058 94.0606L133.711 94.6366C133.364 94.0606 133.403 93.523 133.403 93.523H133.326C133.326 93.5614 133.287 94.1373 133.672 94.7133L133.364 95.251C132.825 94.5982 132.864 93.907 132.864 93.907H132.787C132.787 93.9454 132.748 94.6366 133.326 95.3277L132.979 95.9037C132.556 95.4813 132.44 94.7518 132.44 94.7518H132.363C132.363 94.7902 132.517 95.5198 132.941 95.9806L132.825 96.211L132.864 96.2493L132.902 96.2877L133.018 96.0573C133.672 96.2109 134.366 95.9806 134.404 95.9806Z" fill="#955A68"/>
<path d="M122.622 100.934C122.699 100.742 122.969 100.704 122.969 100.512C122.969 100.473 122.969 100.397 122.93 100.358C122.93 100.32 122.892 100.32 122.892 100.281C122.892 100.205 122.892 100.128 122.93 100.089C123.007 99.9358 123.046 99.8206 123.123 99.667C123.161 99.5902 123.2 99.475 123.161 99.3982C123.123 99.3598 123.084 99.3214 123.046 99.283C122.892 99.091 123.084 98.8222 123.161 98.5918C123.392 97.9774 122.237 97.2862 121.852 97.8238C121.698 98.0158 121.544 98.2846 121.313 98.2462C121.274 98.2462 121.197 98.2078 121.159 98.2078C121.082 98.2078 121.005 98.2846 120.966 98.3614C120.889 98.4766 120.774 98.5918 120.697 98.7454C120.658 98.8222 120.62 98.8606 120.543 98.899C120.504 98.899 120.504 98.899 120.466 98.899C120.427 98.899 120.35 98.899 120.312 98.9374C120.158 99.0526 120.235 99.3214 120.119 99.475C120.042 99.5518 119.888 99.5902 119.85 99.475C119.734 99.9358 119.811 100.435 120.004 100.857C120.119 101.126 120.35 101.357 120.581 101.51C120.851 101.664 121.12 101.741 121.428 101.741C121.891 101.702 122.353 101.549 122.738 101.241C122.622 101.203 122.584 101.049 122.622 100.934Z" fill="#D37533"/>
<path d="M122.122 101.241L122.083 101.165C122.083 101.165 121.39 101.395 120.812 101.241L121.159 100.665C122.006 100.857 122.622 100.473 122.661 100.473L122.622 100.397C122.622 100.397 122.045 100.742 121.197 100.589L121.505 100.051C122.199 100.089 122.699 99.7822 122.738 99.7822L122.699 99.7054C122.699 99.7054 122.199 100.013 121.544 99.9742L121.89 99.3982C122.314 99.4366 122.738 99.2062 122.776 99.2062L122.738 99.1294C122.738 99.1294 122.353 99.3598 121.929 99.3214L122.314 98.707C122.699 98.7454 122.969 98.5534 122.969 98.5534L122.93 98.4766C122.93 98.4766 122.699 98.6686 122.353 98.6302L122.853 97.7854C122.815 97.747 122.776 97.747 122.738 97.7086L122.237 98.5534C122.045 98.2846 122.122 97.9774 122.122 97.9774H122.045C122.045 97.9774 121.967 98.323 122.199 98.6302L121.813 99.2446C121.582 98.899 121.621 98.4382 121.621 98.4382H121.544C121.544 98.4766 121.544 98.9374 121.775 99.3214L121.428 99.8974C121.082 99.3214 121.12 98.7838 121.12 98.7838H121.043C121.043 98.8222 121.005 99.3982 121.39 99.9742L121.082 100.512C120.543 99.859 120.581 99.1678 120.581 99.1678H120.504C120.504 99.2062 120.466 99.8974 121.043 100.589L120.697 101.165C120.273 100.742 120.158 100.013 120.158 100.013H120.081C120.081 100.051 120.235 100.781 120.658 101.241L120.543 101.472L120.581 101.51L120.62 101.549L120.735 101.318C121.39 101.472 122.083 101.28 122.122 101.241Z" fill="#955A68"/>
<path d="M166.439 89.875C166.516 89.683 166.785 89.6446 166.785 89.4526C166.785 89.4142 166.785 89.3374 166.747 89.299C166.747 89.2606 166.708 89.2606 166.708 89.2222C166.708 89.1454 166.708 89.0686 166.747 89.0302C166.824 88.8766 166.862 88.7614 166.939 88.6078C166.978 88.531 167.016 88.4158 166.978 88.339C166.939 88.3006 166.901 88.2622 166.862 88.2238C166.708 88.0318 166.901 87.763 166.978 87.5326C167.209 86.9182 166.054 86.227 165.669 86.7646C165.515 86.9566 165.361 87.2254 165.13 87.187C165.091 87.187 165.014 87.1486 164.976 87.1486C164.899 87.1486 164.822 87.2254 164.783 87.3022C164.706 87.4174 164.591 87.5326 164.514 87.6862C164.475 87.763 164.437 87.8014 164.36 87.8398C164.321 87.8398 164.321 87.8398 164.283 87.8398C164.244 87.8398 164.167 87.8398 164.129 87.8782C163.975 87.9934 164.052 88.2622 163.936 88.4158C163.859 88.4926 163.705 88.531 163.667 88.4158C163.551 88.8766 163.628 89.3758 163.821 89.7982C163.936 90.067 164.167 90.2974 164.398 90.451C164.668 90.6046 164.937 90.6814 165.245 90.6814C165.707 90.643 166.169 90.4894 166.554 90.1822C166.439 90.1438 166.4 89.9902 166.439 89.875Z" fill="#D37533"/>
<path d="M165.977 90.1822L165.938 90.1054C165.938 90.1054 165.245 90.3358 164.668 90.1822L165.014 89.6062C165.861 89.7982 166.477 89.4142 166.516 89.4142L166.477 89.3374C166.477 89.3374 165.9 89.683 165.053 89.5294L165.361 88.9918C166.054 89.0302 166.554 88.723 166.593 88.723L166.554 88.6462C166.554 88.6462 166.054 88.9534 165.399 88.915L165.746 88.339C166.169 88.3774 166.593 88.147 166.631 88.147L166.593 88.0702C166.593 88.0702 166.208 88.3006 165.784 88.2622L166.169 87.6478C166.554 87.6862 166.824 87.4942 166.824 87.4942L166.785 87.4174C166.785 87.4174 166.554 87.6094 166.208 87.571L166.708 86.7262C166.67 86.6878 166.631 86.6878 166.593 86.6494L166.092 87.4942C165.9 87.2254 165.977 86.9182 165.977 86.9182H165.9C165.9 86.9182 165.823 87.2638 166.054 87.571L165.669 88.1854C165.438 87.8398 165.476 87.379 165.476 87.379H165.399C165.399 87.4174 165.399 87.8782 165.63 88.2622L165.284 88.8382C164.937 88.2622 164.976 87.7246 164.976 87.7246H164.899C164.899 87.763 164.86 88.339 165.245 88.915L164.937 89.4526C164.398 88.7998 164.437 88.1086 164.437 88.1086H164.36C164.36 88.147 164.321 88.8382 164.899 89.5294L164.552 90.1054C164.129 89.683 164.013 88.9534 164.013 88.9534H163.936C163.936 88.9918 164.09 89.7214 164.514 90.1822L164.398 90.4126L164.437 90.451L164.475 90.4894L164.591 90.259C165.207 90.4126 165.938 90.1822 165.977 90.1822Z" fill="#955A68"/>
<path d="M113.651 93.1006C113.574 92.9086 113.304 92.8702 113.304 92.6782C113.304 92.6398 113.304 92.563 113.343 92.5246C113.343 92.4862 113.381 92.4862 113.381 92.4478C113.381 92.371 113.381 92.2942 113.343 92.2558C113.266 92.1022 113.227 91.987 113.15 91.8334C113.112 91.7566 113.073 91.6414 113.112 91.5646C113.15 91.5262 113.189 91.4878 113.227 91.4494C113.381 91.2574 113.189 90.9886 113.112 90.7582C112.881 90.1438 114.036 89.4526 114.421 89.9902C114.575 90.1822 114.729 90.451 114.96 90.4126C114.998 90.4126 115.075 90.3742 115.114 90.3742C115.191 90.3742 115.268 90.451 115.306 90.5278C115.383 90.643 115.499 90.7582 115.576 90.9118C115.614 90.9886 115.653 91.027 115.73 91.0654C115.769 91.0654 115.768 91.0654 115.807 91.0654C115.846 91.0654 115.923 91.0654 115.961 91.1038C116.115 91.219 116.038 91.4878 116.154 91.6414C116.231 91.7182 116.385 91.7566 116.423 91.6414C116.539 92.1022 116.462 92.6014 116.269 93.0238C116.154 93.2926 115.923 93.523 115.691 93.6766C115.422 93.8302 115.152 93.907 114.844 93.907C114.382 93.8686 113.92 93.715 113.535 93.4078C113.651 93.3694 113.689 93.2158 113.651 93.1006Z" fill="#D37533"/>
<path d="M114.113 93.4078L114.151 93.331C114.151 93.331 114.844 93.5614 115.422 93.4078L115.075 92.8318C114.228 93.0238 113.612 92.6398 113.574 92.6398L113.612 92.563C113.612 92.563 114.19 92.9086 115.037 92.755L114.729 92.2174C114.036 92.2558 113.535 91.9486 113.497 91.9486L113.535 91.8718C113.535 91.8718 114.036 92.179 114.69 92.1406L114.344 91.5646C113.92 91.603 113.497 91.3726 113.458 91.3726L113.497 91.2958C113.497 91.2958 113.882 91.5262 114.305 91.4878L113.92 90.8734C113.535 90.9118 113.266 90.7198 113.266 90.7198L113.304 90.643C113.304 90.643 113.535 90.835 113.882 90.7966L113.381 89.9518C113.42 89.9134 113.458 89.9134 113.497 89.875L113.997 90.7198C114.19 90.451 114.113 90.1438 114.113 90.1438H114.19C114.19 90.1438 114.267 90.4894 114.036 90.7966L114.421 91.411C114.652 91.0654 114.613 90.6046 114.613 90.6046H114.69C114.69 90.643 114.69 91.1038 114.459 91.4878L114.806 92.0638C115.152 91.4878 115.114 90.9502 115.114 90.9502H115.191C115.191 90.9886 115.229 91.5646 114.844 92.1406L115.152 92.6782C115.691 92.0254 115.653 91.3342 115.653 91.3342H115.73C115.73 91.3726 115.768 92.0638 115.191 92.755L115.537 93.331C115.961 92.9086 116.077 92.179 116.077 92.179H116.154C116.154 92.2174 116 92.947 115.576 93.4078L115.691 93.6382L115.653 93.6766L115.614 93.715L115.499 93.4846C114.883 93.6382 114.151 93.4078 114.113 93.4078Z" fill="#955A68"/>
<path d="M153.425 91.603C153.348 91.411 153.078 91.3726 153.078 91.1806C153.078 91.1422 153.078 91.0654 153.117 91.027C153.117 90.9886 153.155 90.9886 153.155 90.9502C153.155 90.8734 153.155 90.7966 153.117 90.7582C153.04 90.6046 153.001 90.4894 152.924 90.3358C152.886 90.259 152.847 90.1438 152.886 90.067C152.924 90.0286 152.963 89.9902 153.001 89.9518C153.155 89.7598 152.963 89.491 152.886 89.2606C152.655 88.6462 153.81 87.955 154.195 88.4926C154.349 88.6846 154.503 88.9534 154.734 88.915C154.772 88.915 154.849 88.8766 154.888 88.8766C154.965 88.8766 155.042 88.9534 155.08 89.0302C155.157 89.1454 155.273 89.2606 155.35 89.4142C155.388 89.491 155.427 89.5294 155.504 89.5678C155.542 89.5678 155.542 89.5678 155.581 89.5678C155.619 89.5678 155.696 89.5678 155.735 89.6062C155.889 89.7214 155.812 89.9902 155.927 90.1438C156.004 90.2206 156.158 90.259 156.197 90.1438C156.312 90.6046 156.235 91.1038 156.043 91.5262C155.927 91.795 155.696 92.0254 155.465 92.179C155.196 92.3326 154.926 92.4094 154.618 92.4094C154.156 92.371 153.694 92.2174 153.309 91.9102C153.386 91.8718 153.463 91.7182 153.425 91.603Z" fill="#D37533"/>
<path d="M153.887 91.9102L153.925 91.8334C153.925 91.8334 154.618 92.0638 155.196 91.9102L154.849 91.3342C154.002 91.5262 153.386 91.1422 153.348 91.1422L153.386 91.0654C153.386 91.0654 153.964 91.411 154.811 91.2574L154.503 90.7198C153.81 90.7582 153.309 90.451 153.271 90.451L153.309 90.3742C153.309 90.3742 153.81 90.6814 154.464 90.643L154.118 90.067C153.694 90.1054 153.271 89.875 153.232 89.875L153.271 89.7982C153.271 89.7982 153.656 90.0286 154.079 89.9902L153.694 89.3758C153.309 89.4142 153.04 89.2222 153.04 89.2222L153.078 89.1454C153.078 89.1454 153.309 89.3374 153.656 89.299L153.155 88.4542C153.194 88.4158 153.232 88.4157 153.271 88.3773L153.771 89.2222C153.964 88.9534 153.887 88.6462 153.887 88.6462H153.964C153.964 88.6462 154.041 88.9918 153.81 89.299L154.195 89.9134C154.426 89.5678 154.387 89.107 154.387 89.107H154.464C154.464 89.1454 154.464 89.6062 154.233 89.9902L154.58 90.5662C154.926 89.9902 154.888 89.4526 154.888 89.4526H154.965C154.965 89.491 155.003 90.067 154.618 90.643L154.926 91.1806C155.465 90.5278 155.427 89.8366 155.427 89.8366H155.504C155.504 89.875 155.542 90.5662 154.965 91.2574L155.311 91.8334C155.735 91.411 155.85 90.6814 155.85 90.6814H155.927C155.927 90.7198 155.773 91.4494 155.35 91.9102L155.465 92.1406L155.427 92.179L155.388 92.2174L155.273 91.987C154.618 92.1406 153.925 91.9486 153.887 91.9102Z" fill="#955A68"/>
<path d="M192.241 61.0272V61.0656C192.241 61.104 192.318 61.104 192.318 61.1424C192.356 61.1808 192.356 61.296 192.318 61.3344C192.279 61.4112 192.241 61.4496 192.202 61.5264C192.048 61.7568 191.971 62.064 192.01 62.2944C192.048 62.5632 192.125 62.7936 192.279 62.9856C192.356 63.1008 192.433 63.1776 192.472 63.2928C192.51 63.3696 192.51 63.4464 192.51 63.5616C192.51 63.6768 192.626 63.7152 192.703 63.6384C192.741 63.5616 192.818 63.4848 192.895 63.4464C193.011 63.3696 193.126 63.3312 193.203 63.2928C193.434 63.216 193.627 63.1008 193.819 62.9088C194.012 62.7168 194.127 62.448 194.127 62.1792C194.127 62.1024 194.127 62.0256 194.127 61.9488C194.127 61.872 194.204 61.7952 194.243 61.7952C194.281 61.7952 194.32 61.7952 194.359 61.7952L194.397 61.7568C194.474 61.6416 194.513 61.5264 194.513 61.3728C194.551 60.9504 194.359 60.6048 194.204 60.336C194.127 60.2208 194.012 60.1056 193.858 60.0672L193.704 60.0288C193.55 59.9904 193.434 59.9904 193.28 60.0288C192.972 60.1824 192.626 60.336 192.395 60.6816C192.279 60.7584 192.241 60.8736 192.241 61.0272Z" fill="#FFA933"/>
<path d="M192.548 60.6806L192.586 60.719C192.74 60.527 193.164 60.335 193.587 60.2582L193.433 60.719C193.087 60.6806 192.663 60.911 192.432 61.103L192.471 61.1414C192.663 60.9494 193.048 60.719 193.395 60.7574L193.279 61.1414C192.971 61.1798 192.509 61.4486 192.355 61.6022L192.394 61.6406C192.548 61.487 192.971 61.2566 193.279 61.2182L193.125 61.679C192.625 61.7942 192.162 62.2166 192.124 62.2166L192.162 62.255C192.162 62.255 192.625 61.871 193.087 61.7558L192.933 62.255C192.625 62.3318 192.317 62.6006 192.24 62.7158L192.278 62.7542C192.355 62.6774 192.663 62.4086 192.933 62.3318L192.817 62.7542C192.586 62.8694 192.509 63.0614 192.509 63.0614L192.548 63.0998C192.548 63.0998 192.625 62.9846 192.779 62.8694L192.548 63.6374C192.586 63.6374 192.586 63.6758 192.625 63.6758L192.856 62.9078C192.933 63.0998 192.894 63.2534 192.894 63.2534H192.971C192.971 63.2534 193.01 63.0614 192.894 62.831L193.01 62.4086C193.164 62.639 193.241 63.023 193.279 63.1382H193.356C193.318 62.9846 193.241 62.6006 193.048 62.3702L193.202 61.871C193.549 62.255 193.664 62.831 193.664 62.831H193.741C193.741 62.7926 193.587 62.2166 193.241 61.8326L193.395 61.3718C193.626 61.5638 193.818 62.0246 193.857 62.255H193.934C193.895 62.0246 193.664 61.5638 193.433 61.3334L193.549 60.9494C193.818 61.103 194.049 61.5254 194.088 61.7942H194.165C194.126 61.5254 193.895 61.0646 193.587 60.911L193.741 60.4502C194.049 60.7574 194.242 61.1414 194.28 61.3718H194.357C194.319 61.103 194.088 60.6806 193.78 60.3734L193.857 60.143L193.78 60.1046L193.703 60.335C193.164 60.2966 192.702 60.4886 192.548 60.6806Z" fill="#D37533"/>
<path d="M207.241 92.4654V92.5038C207.241 92.5422 207.318 92.5422 207.318 92.5806C207.356 92.619 207.356 92.7342 207.318 92.7726C207.279 92.8494 207.241 92.8878 207.202 92.9646C207.048 93.195 206.971 93.5022 207.01 93.7326C207.048 94.0014 207.125 94.2318 207.279 94.4238C207.356 94.539 207.433 94.6158 207.472 94.731C207.51 94.8078 207.51 94.8846 207.51 94.9998C207.51 95.115 207.626 95.1534 207.703 95.0766C207.741 94.9998 207.818 94.923 207.895 94.8846C208.011 94.8078 208.126 94.7694 208.203 94.731C208.434 94.6542 208.627 94.539 208.819 94.347C209.012 94.155 209.127 93.8862 209.127 93.6174C209.127 93.5406 209.127 93.4638 209.127 93.387C209.127 93.3102 209.204 93.2334 209.243 93.2334C209.281 93.2334 209.32 93.2334 209.358 93.2334L209.397 93.195C209.474 93.0798 209.513 92.9646 209.513 92.811C209.551 92.3886 209.359 92.043 209.204 91.7742C209.127 91.659 209.012 91.5438 208.858 91.5054L208.704 91.467C208.55 91.4286 208.434 91.4286 208.28 91.467C207.972 91.6206 207.626 91.7742 207.395 92.1198C207.318 92.1966 207.279 92.3118 207.241 92.4654Z" fill="#FFA933"/>
<path d="M207.587 92.1198L207.626 92.1582C207.78 91.9662 208.203 91.7742 208.627 91.6974L208.473 92.1582C208.126 92.1198 207.703 92.3502 207.472 92.5422L207.51 92.5806C207.703 92.3886 208.088 92.1582 208.434 92.1966L208.319 92.5806C208.011 92.619 207.549 92.8878 207.395 93.0414L207.433 93.0798C207.587 92.9262 208.011 92.6958 208.319 92.6574L208.165 93.1182C207.664 93.2334 207.202 93.6558 207.164 93.6558L207.202 93.6942C207.202 93.6942 207.664 93.3102 208.126 93.195L207.972 93.6942C207.664 93.771 207.356 94.0398 207.279 94.155L207.318 94.1934C207.395 94.1166 207.703 93.8478 207.972 93.771L207.857 94.1934C207.626 94.3086 207.549 94.5006 207.549 94.5006L207.587 94.539C207.587 94.539 207.664 94.4238 207.818 94.3086L207.587 95.0766C207.626 95.0766 207.626 95.115 207.664 95.115L207.895 94.347C207.972 94.539 207.934 94.6926 207.934 94.6926H208.011C208.011 94.6926 208.049 94.5006 207.934 94.2702L208.049 93.8478C208.203 94.0782 208.28 94.4622 208.319 94.5774H208.396C208.357 94.4238 208.28 94.0398 208.088 93.8094L208.242 93.3102C208.588 93.6942 208.704 94.2702 208.704 94.2702H208.781C208.781 94.2318 208.627 93.6558 208.28 93.2718L208.434 92.811C208.665 93.003 208.858 93.4638 208.896 93.6942H208.973C208.935 93.4638 208.704 93.003 208.473 92.7726L208.588 92.3886C208.858 92.5422 209.089 92.9646 209.127 93.2334H209.204C209.166 92.9646 208.935 92.5038 208.627 92.3502L208.781 91.8894C209.089 92.1966 209.281 92.5806 209.32 92.811H209.397C209.358 92.5422 209.127 92.1198 208.819 91.8126L208.896 91.5822L208.819 91.5438L208.742 91.7742C208.203 91.7358 207.741 91.9278 207.587 92.1198Z" fill="#D37533"/>
<path d="M128.821 102.355V102.393C128.821 102.432 128.898 102.432 128.898 102.47C128.937 102.509 128.937 102.624 128.898 102.662C128.86 102.701 128.821 102.777 128.783 102.854C128.629 103.085 128.552 103.392 128.59 103.622C128.629 103.891 128.706 104.121 128.86 104.313C128.937 104.429 129.014 104.505 129.052 104.621C129.091 104.697 129.091 104.774 129.091 104.889C129.091 105.005 129.206 105.043 129.283 104.966C129.322 104.889 129.399 104.813 129.476 104.774C129.591 104.697 129.707 104.659 129.784 104.621C130.015 104.544 130.207 104.429 130.4 104.237C130.592 104.045 130.708 103.776 130.708 103.507C130.708 103.43 130.708 103.353 130.708 103.277C130.708 103.2 130.785 103.123 130.823 103.123C130.862 103.123 130.9 103.123 130.939 103.123L130.977 103.085C131.054 102.969 131.093 102.854 131.093 102.701C131.131 102.278 130.939 101.933 130.785 101.664C130.708 101.549 130.592 101.433 130.438 101.395L130.284 101.357C130.13 101.318 130.015 101.318 129.861 101.357C129.553 101.51 129.206 101.664 128.975 102.009C128.86 102.125 128.821 102.24 128.821 102.355Z" fill="#FFA933"/>
<path d="M129.128 102.046L129.166 102.085C129.32 101.893 129.744 101.701 130.167 101.624L130.013 102.085C129.667 102.046 129.243 102.277 129.012 102.469L129.051 102.507C129.243 102.315 129.628 102.085 129.975 102.123L129.859 102.507C129.551 102.546 129.089 102.814 128.935 102.968L128.974 103.006C129.128 102.853 129.551 102.622 129.859 102.584L129.705 103.045C129.205 103.16 128.743 103.582 128.704 103.582L128.743 103.621C128.743 103.621 129.205 103.237 129.667 103.122L129.513 103.621C129.205 103.698 128.897 103.966 128.82 104.082L128.858 104.12C128.935 104.043 129.243 103.774 129.513 103.698L129.397 104.12C129.166 104.235 129.089 104.427 129.089 104.427L129.128 104.466C129.128 104.466 129.205 104.35 129.359 104.235L129.128 105.003C129.166 105.003 129.166 105.042 129.205 105.042L129.436 104.274C129.513 104.466 129.474 104.619 129.474 104.619H129.551C129.551 104.619 129.59 104.427 129.474 104.197L129.59 103.774C129.744 104.005 129.821 104.389 129.859 104.504H129.936C129.898 104.35 129.821 103.966 129.628 103.736L129.782 103.237C130.129 103.621 130.244 104.197 130.244 104.197H130.321C130.321 104.158 130.167 103.582 129.821 103.198L129.975 102.738C130.206 102.93 130.398 103.39 130.437 103.621H130.514C130.475 103.39 130.244 102.93 130.013 102.699L130.129 102.315C130.398 102.469 130.629 102.891 130.668 103.16H130.745C130.706 102.891 130.475 102.43 130.167 102.277L130.321 101.816C130.629 102.123 130.822 102.507 130.86 102.738H130.937C130.899 102.469 130.668 102.046 130.36 101.739L130.437 101.509L130.36 101.47L130.283 101.701C129.744 101.624 129.32 101.854 129.128 102.046Z" fill="#D37533"/>
<path d="M125.664 91.0654V91.1038C125.664 91.1422 125.587 91.1422 125.587 91.1806C125.548 91.219 125.548 91.3342 125.587 91.3726C125.625 91.4494 125.664 91.4878 125.702 91.5646C125.856 91.795 125.933 92.1022 125.895 92.3326C125.856 92.6014 125.779 92.8318 125.625 93.0238C125.548 93.139 125.471 93.2158 125.433 93.331C125.394 93.4078 125.394 93.4846 125.394 93.5998C125.394 93.715 125.279 93.7534 125.202 93.6766C125.163 93.5998 125.086 93.523 125.009 93.4846C124.894 93.4078 124.778 93.3694 124.701 93.331C124.47 93.2542 124.278 93.139 124.085 92.947C123.893 92.755 123.777 92.4862 123.777 92.2174C123.777 92.1406 123.777 92.0638 123.777 91.987C123.777 91.9102 123.7 91.8334 123.662 91.8334C123.623 91.8334 123.585 91.8334 123.546 91.8334L123.508 91.795C123.431 91.6798 123.392 91.5646 123.392 91.411C123.354 90.9886 123.546 90.643 123.7 90.3742C123.777 90.259 123.893 90.1438 124.047 90.1054L124.201 90.067C124.355 90.0286 124.47 90.0286 124.624 90.067C124.932 90.2206 125.279 90.3742 125.51 90.7198C125.587 90.7966 125.664 90.9502 125.664 91.0654Z" fill="#FFA933"/>
<path d="M125.356 90.7582L125.317 90.7966C125.163 90.6046 124.74 90.4126 124.316 90.3358L124.47 90.7966C124.817 90.7582 125.24 90.9886 125.471 91.1806L125.433 91.219C125.24 91.027 124.855 90.7966 124.509 90.835L124.624 91.219C124.932 91.2574 125.394 91.5262 125.548 91.6798L125.51 91.7182C125.356 91.5646 124.932 91.3342 124.624 91.2958L124.778 91.7566C125.279 91.8718 125.741 92.2942 125.779 92.2942L125.741 92.3326C125.741 92.3326 125.279 91.9486 124.817 91.8334L124.971 92.3326C125.279 92.4094 125.587 92.6782 125.664 92.7934L125.625 92.8318C125.548 92.755 125.24 92.4862 124.971 92.4094L125.086 92.8318C125.317 92.947 125.394 93.139 125.394 93.139L125.356 93.1774C125.356 93.1774 125.279 93.0622 125.125 92.947L125.356 93.715C125.317 93.715 125.317 93.7534 125.279 93.7534L125.048 92.9854C124.971 93.1774 125.009 93.331 125.009 93.331H124.932C124.932 93.331 124.894 93.139 125.009 92.9086L124.894 92.4862C124.74 92.7166 124.663 93.1006 124.624 93.2158H124.547C124.586 93.0622 124.663 92.6782 124.855 92.4478L124.701 91.9486C124.355 92.3326 124.239 92.9086 124.239 92.9086H124.162C124.162 92.8702 124.316 92.2942 124.663 91.9102L124.509 91.4494C124.278 91.6414 124.085 92.1022 124.047 92.3326H123.97C124.008 92.1022 124.239 91.6414 124.47 91.411L124.355 91.027C124.085 91.1806 123.854 91.603 123.816 91.8718H123.739C123.777 91.603 124.008 91.1422 124.316 90.9886L124.162 90.5278C123.854 90.835 123.662 91.219 123.623 91.4494H123.546C123.585 91.1806 123.816 90.7582 124.124 90.451L124.047 90.2206L124.124 90.1822L124.201 90.4126C124.74 90.3358 125.163 90.5662 125.356 90.7582Z" fill="#D37533"/>
<path d="M101.06 89.2222V89.2606C101.06 89.299 100.983 89.299 100.983 89.3374C100.945 89.3758 100.945 89.491 100.983 89.5294C101.022 89.6062 101.06 89.6446 101.099 89.7214C101.253 89.9518 101.33 90.259 101.291 90.4894C101.253 90.7582 101.176 90.9886 101.022 91.1806C100.945 91.2958 100.868 91.3726 100.829 91.4878C100.791 91.5646 100.791 91.6414 100.791 91.7566C100.791 91.8718 100.675 91.9102 100.598 91.8334C100.56 91.7566 100.483 91.6798 100.406 91.6414C100.29 91.5646 100.175 91.5262 100.098 91.4878C99.8667 91.411 99.6741 91.2958 99.4816 91.1038C99.2891 90.9118 99.1736 90.643 99.1736 90.3742C99.1736 90.2974 99.1736 90.2206 99.1736 90.1438C99.1736 90.067 99.0966 89.9902 99.0581 89.9902C99.0196 89.9902 98.9811 89.9902 98.9426 89.9902L98.9041 89.9518C98.8271 89.8366 98.7886 89.7214 98.7886 89.5678C98.7501 89.1454 98.9426 88.7998 99.0966 88.531C99.1736 88.4158 99.2891 88.3006 99.4431 88.2622L99.5971 88.2238C99.7512 88.1854 99.8667 88.1854 100.021 88.2238C100.329 88.3774 100.675 88.531 100.906 88.8766C100.983 88.9918 101.022 89.107 101.06 89.2222Z" fill="#FFA933"/>
<path d="M100.713 88.9144L100.675 88.9528C100.521 88.7608 100.097 88.5688 99.6735 88.492L99.8275 88.9528C100.174 88.9144 100.598 89.1448 100.829 89.3368L100.79 89.3752C100.598 89.1832 100.213 88.9528 99.866 88.9912L99.9815 89.3752C100.29 89.4136 100.752 89.6824 100.906 89.836L100.867 89.8744C100.713 89.7208 100.29 89.4904 99.9815 89.452L100.136 89.9128C100.636 90.028 101.098 90.4504 101.137 90.4504L101.098 90.4888C101.098 90.4888 100.636 90.1048 100.174 89.9896L100.328 90.4888C100.636 90.5656 100.944 90.8344 101.021 90.9496L100.983 90.988C100.906 90.9112 100.598 90.6424 100.328 90.5656L100.444 90.988C100.675 91.1032 100.752 91.2952 100.752 91.2952L100.713 91.3336C100.713 91.3336 100.636 91.2184 100.482 91.1032L100.713 91.8712C100.675 91.8712 100.675 91.9096 100.636 91.9096L100.405 91.1416C100.328 91.3336 100.367 91.4872 100.367 91.4872H100.29C100.29 91.4872 100.251 91.2952 100.367 91.0648L100.251 90.6424C100.097 90.8728 100.02 91.2568 99.9815 91.372H99.9045C99.943 91.2184 100.02 90.8344 100.213 90.604L100.059 90.1048C99.712 90.4888 99.5965 91.0648 99.5965 91.0648H99.5195C99.5195 91.0264 99.6735 90.4504 100.02 90.0664L99.866 89.6056C99.635 89.7976 99.4425 90.2584 99.404 90.4888H99.327C99.3655 90.2584 99.5965 89.7976 99.8275 89.5672L99.712 89.1832C99.4425 89.3368 99.2115 89.7592 99.173 90.028H99.096C99.1345 89.7592 99.3655 89.2984 99.6735 89.1448L99.5195 88.684C99.2115 88.9912 99.019 89.3752 98.9805 89.6056H98.9034C98.9419 89.3368 99.173 88.9144 99.481 88.6072L99.404 88.3768L99.481 88.3384L99.558 88.5688C100.097 88.492 100.559 88.7224 100.713 88.9144Z" fill="#D37533"/>
<path d="M161.048 80.851V80.8894C161.048 80.9278 160.971 80.9278 160.971 80.9662C160.933 81.0046 160.933 81.1198 160.971 81.1582C161.01 81.235 161.048 81.2734 161.087 81.3502C161.241 81.5806 161.318 81.8878 161.279 82.1182C161.241 82.387 161.164 82.6174 161.01 82.8094C160.933 82.9246 160.856 83.0014 160.817 83.1166C160.779 83.1934 160.779 83.2702 160.779 83.3854C160.779 83.5006 160.663 83.539 160.586 83.4622C160.548 83.3854 160.471 83.3086 160.394 83.2702C160.278 83.1934 160.163 83.155 160.086 83.1166C159.855 83.0398 159.662 82.9246 159.47 82.7326C159.277 82.5406 159.162 82.2718 159.162 82.003C159.162 81.9262 159.162 81.8494 159.162 81.7726C159.162 81.6958 159.085 81.619 159.046 81.619C159.008 81.619 158.969 81.619 158.931 81.619L158.892 81.5806C158.815 81.4654 158.777 81.3502 158.777 81.1966C158.738 80.7742 158.931 80.4286 159.085 80.1598C159.162 80.0446 159.277 79.9294 159.431 79.891L159.585 79.8526C159.739 79.8142 159.855 79.8142 160.009 79.8526C160.317 80.0062 160.663 80.1598 160.894 80.5054C161.01 80.5822 161.048 80.7358 161.048 80.851Z" fill="#FFA933"/>
<path d="M160.74 80.5438L160.702 80.5822C160.548 80.3902 160.124 80.1982 159.701 80.1214L159.855 80.5822C160.201 80.5438 160.625 80.7742 160.856 80.9662L160.817 81.0046C160.625 80.8126 160.24 80.5822 159.893 80.6206L160.009 81.0046C160.317 81.043 160.779 81.3118 160.933 81.4654L160.894 81.5038C160.74 81.3502 160.317 81.1198 160.009 81.0814L160.163 81.5422C160.663 81.6574 161.125 82.0798 161.164 82.0798L161.125 82.1182C161.125 82.1182 160.663 81.7342 160.201 81.619L160.355 82.1182C160.663 82.195 160.971 82.4638 161.048 82.579L161.01 82.6174C160.933 82.5406 160.625 82.2718 160.355 82.195L160.471 82.6174C160.702 82.7326 160.779 82.9246 160.779 82.9246L160.74 82.963C160.74 82.963 160.663 82.8478 160.509 82.7326L160.74 83.5006C160.702 83.5006 160.702 83.539 160.663 83.539L160.432 82.771C160.355 82.963 160.394 83.1166 160.394 83.1166H160.317C160.317 83.1166 160.278 82.9246 160.394 82.6942L160.278 82.2718C160.124 82.5022 160.047 82.8862 160.009 83.0014H159.932C159.97 82.8478 160.047 82.4638 160.24 82.2334L160.086 81.7342C159.739 82.1182 159.624 82.6942 159.624 82.6942H159.547C159.547 82.6558 159.701 82.0798 160.047 81.6958L159.893 81.235C159.662 81.427 159.47 81.8878 159.431 82.1182H159.354C159.393 81.8878 159.624 81.427 159.855 81.1966L159.739 80.8126C159.47 80.9662 159.239 81.3886 159.2 81.6574H159.123C159.162 81.3886 159.393 80.9278 159.701 80.7742L159.547 80.3134C159.239 80.6206 159.046 81.0046 159.008 81.235H158.931C158.969 80.9662 159.2 80.5438 159.508 80.2366L159.431 80.0062L159.508 79.9678L159.585 80.1982C160.124 80.1214 160.548 80.3518 160.74 80.5438Z" fill="#D37533"/>
<path d="M137.33 100.128V100.166C137.33 100.205 137.253 100.205 137.253 100.243C137.215 100.281 137.215 100.397 137.253 100.435C137.292 100.512 137.33 100.55 137.369 100.627C137.523 100.857 137.6 101.165 137.561 101.395C137.523 101.664 137.446 101.894 137.292 102.086C137.215 102.201 137.138 102.278 137.099 102.393C137.061 102.47 137.061 102.547 137.061 102.662C137.061 102.777 136.945 102.816 136.868 102.739C136.83 102.662 136.753 102.585 136.676 102.547C136.56 102.47 136.445 102.432 136.368 102.393C136.137 102.317 135.944 102.201 135.752 102.009C135.559 101.817 135.444 101.549 135.444 101.28C135.444 101.203 135.444 101.126 135.444 101.049C135.444 100.973 135.367 100.896 135.328 100.896C135.29 100.896 135.251 100.896 135.213 100.896L135.174 100.857C135.097 100.742 135.059 100.627 135.059 100.473C135.02 100.051 135.213 99.7054 135.367 99.4366C135.444 99.3214 135.559 99.2062 135.713 99.1678L135.867 99.1294C136.021 99.091 136.137 99.091 136.291 99.1294C136.599 99.283 136.945 99.4366 137.176 99.7822C137.292 99.859 137.33 100.013 137.33 100.128Z" fill="#FFA933"/>
<path d="M137.022 99.8206L136.984 99.859C136.83 99.667 136.406 99.475 135.983 99.3982L136.137 99.859C136.483 99.8206 136.907 100.051 137.138 100.243L137.099 100.281C136.907 100.089 136.522 99.859 136.175 99.8974L136.291 100.281C136.599 100.32 137.061 100.589 137.215 100.742L137.176 100.781C137.022 100.627 136.599 100.397 136.291 100.358L136.445 100.819C136.945 100.934 137.407 101.357 137.446 101.357L137.407 101.395C137.407 101.395 136.945 101.011 136.483 100.896L136.637 101.395C136.945 101.472 137.253 101.741 137.33 101.856L137.292 101.894C137.215 101.817 136.907 101.549 136.637 101.472L136.753 101.894C136.984 102.009 137.061 102.201 137.061 102.201L137.022 102.24C137.022 102.24 136.945 102.125 136.791 102.009L137.022 102.777C136.984 102.777 136.984 102.816 136.945 102.816L136.714 102.048C136.637 102.24 136.676 102.393 136.676 102.393H136.599C136.599 102.393 136.56 102.201 136.676 101.971L136.56 101.549C136.406 101.779 136.329 102.163 136.291 102.278H136.214C136.252 102.125 136.329 101.741 136.522 101.51L136.368 101.011C136.021 101.395 135.906 101.971 135.906 101.971H135.829C135.829 101.933 135.983 101.357 136.329 100.973L136.175 100.512C135.944 100.704 135.752 101.165 135.713 101.395H135.636C135.675 101.165 135.906 100.704 136.137 100.473L136.021 100.089C135.752 100.243 135.521 100.665 135.482 100.934H135.405C135.444 100.665 135.675 100.205 135.983 100.051L135.829 99.5902C135.521 99.8974 135.328 100.281 135.29 100.512H135.213C135.251 100.243 135.482 99.8206 135.79 99.5134L135.713 99.283L135.79 99.2446L135.867 99.475C136.406 99.3982 136.83 99.6286 137.022 99.8206Z" fill="#D37533"/>
<path d="M162.319 89.0686C161.587 89.0686 160.856 89.0302 160.124 88.9534C158.815 88.8766 157.467 88.7614 156.197 88.9534L156.158 88.7614C157.429 88.5694 158.815 88.6462 160.124 88.7614C162.319 88.915 164.398 89.0686 166.131 87.955C167.748 86.9182 168.633 84.883 168.248 83.0014C167.94 81.5038 167.209 80.1214 166.169 79.2766C162.896 76.5886 159.508 77.971 158.546 78.4702C156.89 79.315 155.773 80.659 155.85 81.811C155.889 82.4254 156.389 83.0782 157.236 83.6542C158.661 84.6142 161.125 85.3054 162.858 84.7294C163.32 84.5758 164.129 84.1918 164.321 83.5006C164.398 83.155 164.283 82.771 164.013 82.5022C163.898 82.387 163.666 82.2334 163.358 82.3486L163.281 82.1566C163.589 82.0414 163.898 82.1182 164.167 82.3486C164.514 82.6558 164.668 83.155 164.552 83.539C164.321 84.3454 163.474 84.7294 162.973 84.9214C161.587 85.3822 159.123 85.1518 157.159 83.8462C156.235 83.2318 155.735 82.5022 155.696 81.8494C155.619 80.6206 156.774 79.1998 158.507 78.3166C159.508 77.8174 163.012 76.3966 166.362 79.1614C167.44 80.0446 168.21 81.427 168.518 83.0014C168.903 84.9598 167.979 87.1102 166.285 88.1854C165.091 88.8766 163.744 89.0686 162.319 89.0686Z" fill="white"/>
<path d="M135.598 100.896C134.789 100.896 134.019 100.742 133.364 100.473C131.555 99.7438 130.4 98.131 129.245 96.595C128.436 95.5198 127.627 94.4446 126.626 93.5998L126.742 93.4462C127.782 94.291 128.59 95.4046 129.399 96.4798C130.592 98.0542 131.709 99.5902 133.441 100.281C135.482 101.126 138.062 100.665 141.104 98.9758C142.875 97.9774 144.569 96.787 146.148 95.4814C146.764 94.9438 147.38 94.3678 147.996 93.8302C149.228 92.7166 150.46 91.5646 151.808 90.643L151.923 90.7966C150.575 91.7182 149.343 92.8702 148.111 93.9454C147.495 94.483 146.879 95.059 146.263 95.5966C144.684 96.9406 142.99 98.131 141.181 99.1294C139.101 100.32 137.215 100.896 135.598 100.896Z" fill="white"/>
<path d="M113.574 92.6398C113.304 92.6398 113.035 92.6398 112.804 92.6014C109.492 92.4094 108.26 90.7582 107.914 90.067C107.683 89.6062 107.529 89.0686 107.413 88.4158L107.606 88.3774C107.721 89.0302 107.875 89.5294 108.106 89.9518C108.453 90.6046 109.646 92.179 112.842 92.371C114.382 92.4478 115.923 92.2558 117.424 92.0638C118.117 91.987 118.81 91.8718 119.503 91.795C120.581 91.6798 121.544 91.6798 122.43 91.7566V91.9486C121.582 91.8718 120.62 91.8718 119.542 91.987C118.849 92.0638 118.156 92.1406 117.501 92.2174C116.154 92.4862 114.844 92.6398 113.574 92.6398Z" fill="white"/>
<path d="M106.374 84.115C105.681 83.0782 104.526 82.2334 103.139 81.8494C101.753 81.4654 100.175 81.427 98.1725 81.7726L98.134 81.5806C100.175 81.235 101.792 81.2734 103.178 81.6574C104.603 82.0798 105.796 82.9246 106.528 83.9998L106.374 84.115Z" fill="white"/>
<path d="M106.566 90.2206C106.566 90.2206 107.567 93.2158 111.88 93.715" stroke="white" stroke-width="0.5" stroke-miterlimit="10"/>
<path d="M161.664 76.243C161.664 76.243 166.246 75.8206 168.749 80.083" stroke="white" stroke-width="0.5" stroke-miterlimit="10"/>
<path d="M129.322 93.5998C129.322 93.5998 129.784 95.7886 131.632 97.0942" stroke="white" stroke-width="0.5" stroke-miterlimit="10"/>
<path d="M147.649 96.7102C147.649 96.7102 149.728 93.907 151.23 93.5998" stroke="white" stroke-width="0.5" stroke-miterlimit="10"/>
</svg>
